<svg xmlns="http://www.w3.org/2000/svg" xmlns:xlink="http://www.w3.org/1999/xlink" id="processonSvg1000" viewBox="122.0 64.5 657.0 393.5" width="657.0" height="393.5"><defs id="ProcessOnDefs1001"><marker id="ProcessOnMarker1039" markerUnits="userSpaceOnUse" orient="auto" markerWidth="16.23606797749979" markerHeight="10.550836550532098" viewBox="-1.0 -1.3763819204711736 16.23606797749979 10.550836550532098" refX="-1.0" refY="3.8990363547948754"><path id="ProcessOnPath1040" d="M12.0 3.8990363547948754L0.0 7.798072709589751V0.0Z" stroke="#323232" stroke-width="2.0" fill="#323232" transform="matrix(1.0,0.0,0.0,1.0,0.0,0.0)"/></marker><marker id="ProcessOnMarker1043" markerUnits="userSpaceOnUse" orient="auto" markerWidth="16.23606797749979" markerHeight="10.550836550532098" viewBox="-1.0 -1.3763819204711736 16.23606797749979 10.550836550532098" refX="-1.0" refY="3.8990363547948754"><path id="ProcessOnPath1044" d="M12.0 3.8990363547948754L0.0 7.798072709589751V0.0Z" stroke="#323232" stroke-width="2.0" fill="#323232" transform="matrix(1.0,0.0,0.0,1.0,0.0,0.0)"/></marker><marker id="ProcessOnMarker1047" markerUnits="userSpaceOnUse" orient="auto" markerWidth="16.23606797749979" markerHeight="10.550836550532098" viewBox="-1.0 -1.3763819204711736 16.23606797749979 10.550836550532098" refX="-1.0" refY="3.8990363547948754"><path id="ProcessOnPath1048" d="M12.0 3.8990363547948754L0.0 7.798072709589751V0.0Z" stroke="#323232" stroke-width="2.0" fill="#323232" transform="matrix(1.0,0.0,0.0,1.0,0.0,0.0)"/></marker><marker id="ProcessOnMarker1051" markerUnits="userSpaceOnUse" orient="auto" markerWidth="16.23606797749979" markerHeight="10.550836550532098" viewBox="-1.0 -1.3763819204711736 16.23606797749979 10.550836550532098" refX="-1.0" refY="3.8990363547948754"><path id="ProcessOnPath1052" d="M12.0 3.8990363547948754L0.0 7.798072709589751V0.0Z" stroke="#323232" stroke-width="2.0" fill="#323232" transform="matrix(1.0,0.0,0.0,1.0,0.0,0.0)"/></marker><marker id="ProcessOnMarker1055" markerUnits="userSpaceOnUse" orient="auto" markerWidth="16.23606797749979" markerHeight="10.550836550532098" viewBox="-1.0 -1.3763819204711736 16.23606797749979 10.550836550532098" refX="-1.0" refY="3.8990363547948754"><path id="ProcessOnPath1056" d="M12.0 3.8990363547948754L0.0 7.798072709589751V0.0Z" stroke="#323232" stroke-width="2.0" fill="#323232" transform="matrix(1.0,0.0,0.0,1.0,0.0,0.0)"/></marker><marker id="ProcessOnMarker1059" markerUnits="userSpaceOnUse" orient="auto" markerWidth="16.23606797749979" markerHeight="10.550836550532098" viewBox="-1.0 -1.3763819204711736 16.23606797749979 10.550836550532098" refX="-1.0" refY="3.8990363547948754"><path id="ProcessOnPath1060" d="M12.0 3.8990363547948754L0.0 7.798072709589751V0.0Z" stroke="#323232" stroke-width="2.0" fill="#323232" transform="matrix(1.0,0.0,0.0,1.0,0.0,0.0)"/></marker><marker id="ProcessOnMarker1063" markerUnits="userSpaceOnUse" orient="auto" markerWidth="16.23606797749979" markerHeight="10.550836550532098" viewBox="-1.0 -1.3763819204711736 16.23606797749979 10.550836550532098" refX="-1.0" refY="3.8990363547948754"><path id="ProcessOnPath1064" d="M12.0 3.8990363547948754L0.0 7.798072709589751V0.0Z" stroke="#323232" stroke-width="2.0" fill="#323232" transform="matrix(1.0,0.0,0.0,1.0,0.0,0.0)"/></marker><marker id="ProcessOnMarker1067" markerUnits="userSpaceOnUse" orient="auto" markerWidth="16.23606797749979" markerHeight="10.550836550532098" viewBox="-1.0 -1.3763819204711736 16.23606797749979 10.550836550532098" refX="-1.0" refY="3.8990363547948754"><path id="ProcessOnPath1068" d="M12.0 3.8990363547948754L0.0 7.798072709589751V0.0Z" stroke="#323232" stroke-width="2.0" fill="#323232" transform="matrix(1.0,0.0,0.0,1.0,0.0,0.0)"/></marker></defs><g id="ProcessOnG1002"><path id="ProcessOnPath1003" d="M122.0 64.5H779.0V458.0H122.0V64.5Z" fill="none"/><g id="ProcessOnG1004"><g id="ProcessOnG1005" transform="matrix(1.0,0.0,0.0,1.0,142.0,273.0)" opacity="1.0"><path id="ProcessOnPath1006" d="M0 0L77.0 0L77.0 32.0L0 32.0Z" stroke="#323232" stroke-width="2.0" stroke-dasharray="none" opacity="1.0" fill="#ffffff"/><g id="ProcessOnG1007" transform="matrix(1.0,0.0,0.0,1.0,10.0,7.875)"><text id="ProcessOnText1008" fill="#000000" font-size="13" x="27.5" y="13.325" font-family="微软雅黑" size="13" text-anchor="middle" font-weight="normal" font-style="normal" family="微软雅黑" text-decoration="none">新发现</text></g></g><g id="ProcessOnG1009" transform="matrix(1.0,0.0,0.0,1.0,320.0,142.0)" opacity="1.0"><path id="ProcessOnPath1010" d="M0 0L77.0 0L77.0 32.0L0 32.0Z" stroke="#323232" stroke-width="2.0" stroke-dasharray="none" opacity="1.0" fill="#ffffff"/><g id="ProcessOnG1011" transform="matrix(1.0,0.0,0.0,1.0,10.0,7.875)"><text id="ProcessOnText1012" fill="#000000" font-size="13" x="27.5" y="13.325" font-family="微软雅黑" size="13" text-anchor="middle" font-weight="normal" font-style="normal" family="微软雅黑" text-decoration="none">修复中</text></g></g><g id="ProcessOnG1013" transform="matrix(1.0,0.0,0.0,1.0,320.0,406.0)" opacity="1.0"><path id="ProcessOnPath1014" d="M0 0L77.0 0L77.0 32.0L0 32.0Z" stroke="#323232" stroke-width="2.0" stroke-dasharray="none" opacity="1.0" fill="#ffffff"/><g id="ProcessOnG1015" transform="matrix(1.0,0.0,0.0,1.0,10.0,7.875)"><text id="ProcessOnText1016" fill="#000000" font-size="13" x="27.5" y="13.325" font-family="微软雅黑" size="13" text-anchor="middle" font-weight="normal" font-style="normal" family="微软雅黑" text-decoration="none">无效</text></g></g><g id="ProcessOnG1017" transform="matrix(1.0,0.0,0.0,1.0,682.0,169.5)" opacity="1.0"><path id="ProcessOnPath1018" d="M0 0L77.0 0L77.0 32.0L0 32.0Z" stroke="#323232" stroke-width="2.0" stroke-dasharray="none" opacity="1.0" fill="#ffffff"/><g id="ProcessOnG1019" transform="matrix(1.0,0.0,0.0,1.0,10.0,7.875)"><text id="ProcessOnText1020" fill="#000000" font-size="13" x="27.5" y="13.325" font-family="微软雅黑" size="13" text-anchor="middle" font-weight="normal" font-style="normal" family="微软雅黑" text-decoration="none">已验证</text></g></g><g id="ProcessOnG1021" transform="matrix(1.0,0.0,0.0,1.0,483.0,142.0)" opacity="1.0"><path id="ProcessOnPath1022" d="M0 0L88.0 0L88.0 32.0L0 32.0Z" stroke="#323232" stroke-width="2.0" stroke-dasharray="none" opacity="1.0" fill="#ffffff"/><g id="ProcessOnG1023" transform="matrix(1.0,0.0,0.0,1.0,10.0,7.875)"><text id="ProcessOnText1024" fill="#000000" font-size="13" x="33.0" y="13.325" font-family="微软雅黑" size="13" text-anchor="middle" font-weight="normal" font-style="normal" family="微软雅黑" text-decoration="none">修复待验证</text></g></g><g id="ProcessOnG1025" transform="matrix(1.0,0.0,0.0,1.0,320.0,230.0)" opacity="1.0"><path id="ProcessOnPath1026" d="M0 0L77.0 0L77.0 32.0L0 32.0Z" stroke="#323232" stroke-width="2.0" stroke-dasharray="none" opacity="1.0" fill="#ffffff"/><g id="ProcessOnG1027" transform="matrix(1.0,0.0,0.0,1.0,10.0,7.875)"><text id="ProcessOnText1028" fill="#000000" font-size="13" x="27.5" y="13.325" font-family="微软雅黑" size="13" text-anchor="middle" font-weight="normal" font-style="normal" family="微软雅黑" text-decoration="none">未来修复</text></g></g><g id="ProcessOnG1029" transform="matrix(1.0,0.0,0.0,1.0,682.0,114.5)" opacity="1.0"><path id="ProcessOnPath1030" d="M0 0L77.0 0L77.0 32.0L0 32.0Z" stroke="#323232" stroke-width="2.0" stroke-dasharray="none" opacity="1.0" fill="#ffffff"/><g id="ProcessOnG1031" transform="matrix(1.0,0.0,0.0,1.0,10.0,7.875)"><text id="ProcessOnText1032" fill="#000000" font-size="13" x="27.5" y="13.325" font-family="微软雅黑" size="13" text-anchor="middle" font-weight="normal" font-style="normal" family="微软雅黑" text-decoration="none">重现</text></g></g><g id="ProcessOnG1033" transform="matrix(1.0,0.0,0.0,1.0,320.0,318.0)" opacity="1.0"><path id="ProcessOnPath1034" d="M0 0L77.0 0L77.0 32.0L0 32.0Z" stroke="#323232" stroke-width="2.0" stroke-dasharray="none" opacity="1.0" fill="#ffffff"/><g id="ProcessOnG1035" transform="matrix(1.0,0.0,0.0,1.0,10.0,7.875)"><text id="ProcessOnText1036" fill="#000000" font-size="13" x="27.5" y="13.325" font-family="微软雅黑" size="13" text-anchor="middle" font-weight="normal" font-style="normal" family="微软雅黑" text-decoration="none">不做修复</text></g></g><g id="ProcessOnG1037"><path id="ProcessOnPath1038" d="M219.0 289.0L269.5 289.0L269.5 158.0L304.7639320225002 158.0" stroke="#323232" stroke-width="2.0" stroke-dasharray="none" fill="none" marker-end="url(#ProcessOnMarker1039)"/></g><g id="ProcessOnG1041"><path id="ProcessOnPath1042" d="M219.0 289.0L269.5 289.0L269.5 246.0L304.7639320225002 246.0" stroke="#323232" stroke-width="2.0" stroke-dasharray="none" fill="none" marker-end="url(#ProcessOnMarker1043)"/></g><g id="ProcessOnG1045"><path id="ProcessOnPath1046" d="M219.0 289.0L269.5 289.0L269.5 334.0L304.7639320225002 334.0" stroke="#323232" stroke-width="2.0" stroke-dasharray="none" fill="none" marker-end="url(#ProcessOnMarker1047)"/></g><g id="ProcessOnG1049"><path id="ProcessOnPath1050" d="M219.0 289.0L269.5 289.0L269.5 422.0L304.7639320225002 422.0" stroke="#323232" stroke-width="2.0" stroke-dasharray="none" fill="none" marker-end="url(#ProcessOnMarker1051)"/></g><g id="ProcessOnG1053"><path id="ProcessOnPath1054" d="M397.0 158.0L440.0 158.0L440.0 158.0L467.7639320225002 158.0" stroke="#323232" stroke-width="2.0" stroke-dasharray="none" fill="none" marker-end="url(#ProcessOnMarker1055)"/></g><g id="ProcessOnG1057"><path id="ProcessOnPath1058" d="M571.0 158.0L626.5 158.0L626.5 185.5L666.7639320225002 185.5" stroke="#323232" stroke-width="2.0" stroke-dasharray="none" fill="none" marker-end="url(#ProcessOnMarker1059)"/></g><g id="ProcessOnG1061"><path id="ProcessOnPath1062" d="M571.0 158.0L626.5 158.0L626.5 130.5L666.7639320225002 130.5" stroke="#323232" stroke-width="2.0" stroke-dasharray="none" fill="none" marker-end="url(#ProcessOnMarker1063)"/></g><g id="ProcessOnG1065"><path id="ProcessOnPath1066" d="M720.5 114.5L720.5 84.5L358.5 84.5L358.5 126.76393202250021" stroke="#323232" stroke-width="2.0" stroke-dasharray="none" fill="none" marker-end="url(#ProcessOnMarker1067)"/></g></g></g></svg>